<svg width="256" height="256" viewBox="0 0 256 256" fill="none" xmlns="http://www.w3.org/2000/svg">
<g clip-path="url(#clip0_26_194)">
<path d="M201.846 0H54.1538C24.2455 0 0 24.2455 0 54.1538V201.846C0 231.755 24.2455 256 54.1538 256H201.846C231.755 256 256 231.755 256 201.846V54.1538C256 24.2455 231.755 0 201.846 0Z" fill="url(#paint0_linear_26_194)"/>
<path d="M199.384 9.84619H56.6149C30.785 9.84619 9.8457 30.7855 9.8457 56.6154V199.385C9.8457 225.215 30.785 246.154 56.6149 246.154H199.384C225.214 246.154 246.153 225.215 246.153 199.385V56.6154C246.153 30.7855 225.214 9.84619 199.384 9.84619Z" fill="url(#paint1_linear_26_194)"/>
<path d="M201.846 1.84619H54.1534C25.2647 1.84619 1.8457 25.2651 1.8457 54.1539V201.846C1.8457 230.735 25.2647 254.154 54.1534 254.154H201.846C230.734 254.154 254.153 230.735 254.153 201.846V54.1539C254.153 25.2651 230.734 1.84619 201.846 1.84619Z" stroke="#A94405" stroke-opacity="0.18" stroke-width="3"/>
<path d="M194.461 43.0769H61.538C50.6622 43.0769 41.8457 52.361 41.8457 63.8135V193.417C41.8457 204.87 50.6622 214.154 61.538 214.154H194.461C205.337 214.154 214.153 204.87 214.153 193.417V63.8135C214.153 52.361 205.337 43.0769 194.461 43.0769Z" fill="url(#paint2_linear_26_194)"/>
<path d="M193.231 48.2612H62.7695C53.933 48.2612 46.7695 55.8046 46.7695 65.1097V192.121C46.7695 201.427 53.933 208.97 62.7695 208.97H193.231C202.068 208.97 209.231 201.427 209.231 192.121V65.1097C209.231 55.8046 202.068 48.2612 193.231 48.2612Z" stroke="#FFE2A8" stroke-opacity="0.48" stroke-width="4"/>
<path d="M79.9999 65.2307H63.9999C61.9607 65.2307 60.3076 66.8838 60.3076 68.923V78.7692C60.3076 80.8084 61.9607 82.4615 63.9999 82.4615H79.9999C82.0391 82.4615 83.6922 80.8084 83.6922 78.7692V68.923C83.6922 66.8838 82.0391 65.2307 79.9999 65.2307Z" fill="#FFEBC2"/>
<path d="M119.385 65.2307H103.385C101.345 65.2307 99.6924 66.8838 99.6924 68.923V78.7692C99.6924 80.8084 101.345 82.4615 103.385 82.4615H119.385C121.424 82.4615 123.077 80.8084 123.077 78.7692V68.923C123.077 66.8838 121.424 65.2307 119.385 65.2307Z" fill="#FFEBC2"/>
<path d="M158.769 65.2307H142.769C140.73 65.2307 139.077 66.8838 139.077 68.923V78.7692C139.077 80.8084 140.73 82.4615 142.769 82.4615H158.769C160.809 82.4615 162.462 80.8084 162.462 78.7692V68.923C162.462 66.8838 160.809 65.2307 158.769 65.2307Z" fill="#FFEBC2"/>
<path d="M187.077 65.2307H182.154C180.115 65.2307 178.462 66.8838 178.462 68.923V78.7692C178.462 80.8084 180.115 82.4615 182.154 82.4615H187.077C189.117 82.4615 190.77 80.8084 190.77 78.7692V68.923C190.77 66.8838 189.117 65.2307 187.077 65.2307Z" fill="#FFEBC2"/>
<path d="M79.9999 174.769H63.9999C61.9607 174.769 60.3076 176.422 60.3076 178.462V188.308C60.3076 190.347 61.9607 192 63.9999 192H79.9999C82.0391 192 83.6922 190.347 83.6922 188.308V178.462C83.6922 176.422 82.0391 174.769 79.9999 174.769Z" fill="#FFEBC2"/>
<path d="M119.385 174.769H103.385C101.345 174.769 99.6924 176.422 99.6924 178.462V188.308C99.6924 190.347 101.345 192 103.385 192H119.385C121.424 192 123.077 190.347 123.077 188.308V178.462C123.077 176.422 121.424 174.769 119.385 174.769Z" fill="#FFEBC2"/>
<path d="M158.769 174.769H142.769C140.73 174.769 139.077 176.422 139.077 178.462V188.308C139.077 190.347 140.73 192 142.769 192H158.769C160.809 192 162.462 190.347 162.462 188.308V178.462C162.462 176.422 160.809 174.769 158.769 174.769Z" fill="#FFEBC2"/>
<path d="M187.077 174.769H182.154C180.115 174.769 178.462 176.422 178.462 178.462V188.308C178.462 190.347 180.115 192 182.154 192H187.077C189.117 192 190.77 190.347 190.77 188.308V178.462C190.77 176.422 189.117 174.769 187.077 174.769Z" fill="#FFEBC2"/>
<path d="M183.385 91.0769H72.6154C67.8572 91.0769 64 95.4342 64 100.809V156.422C64 161.797 67.8572 166.154 72.6154 166.154H183.385C188.143 166.154 192 161.797 192 156.422V100.809C192 95.4342 188.143 91.0769 183.385 91.0769Z" fill="url(#paint3_linear_26_194)"/>
<path d="M183.385 91.0769H72.6154C67.8572 91.0769 64 95.4342 64 100.809V156.422C64 161.797 67.8572 166.154 72.6154 166.154H183.385C188.143 166.154 192 161.797 192 156.422V100.809C192 95.4342 188.143 91.0769 183.385 91.0769Z" stroke="#8F3C08" stroke-opacity="0.28" stroke-width="3"/>
<path d="M114.462 110.992C114.462 106.877 119.16 104.439 122.684 106.725L150.09 123.565C153.458 125.623 153.458 130.423 150.09 132.48L122.684 149.321C119.16 151.53 114.462 149.092 114.462 144.977V110.992Z" fill="url(#paint4_linear_26_194)"/>
<path d="M114.462 110.992C114.462 106.877 119.16 104.439 122.684 106.725L150.09 123.565C153.458 125.623 153.458 130.423 150.09 132.48L122.684 149.321C119.16 151.53 114.462 149.092 114.462 144.977V110.992Z" stroke="white" stroke-opacity="0.38" stroke-width="3"/>
</g>
<defs>
<linearGradient id="paint0_linear_26_194" x1="36.9231" y1="14.7692" x2="221.538" y2="241.231" gradientUnits="userSpaceOnUse">
<stop stop-color="#FFC95C"/>
<stop offset="1" stop-color="#F97316"/>
</linearGradient>
<linearGradient id="paint1_linear_26_194" x1="34.4611" y1="13.5385" x2="184.615" y2="139.077" gradientUnits="userSpaceOnUse">
<stop stop-color="white" stop-opacity="0.42"/>
<stop offset="1" stop-color="white" stop-opacity="0"/>
</linearGradient>
<linearGradient id="paint2_linear_26_194" x1="56.6149" y1="44.3729" x2="213.745" y2="203.456" gradientUnits="userSpaceOnUse">
<stop stop-color="#FDBA3D"/>
<stop offset="1" stop-color="#B85008"/>
</linearGradient>
<linearGradient id="paint3_linear_26_194" x1="67.6923" y1="56.3191" x2="205.298" y2="185.517" gradientUnits="userSpaceOnUse">
<stop stop-color="#FFEFC7"/>
<stop offset="1" stop-color="#F6B15C"/>
</linearGradient>
<linearGradient id="paint4_linear_26_194" x1="109.764" y1="99.1812" x2="139.135" y2="146.39" gradientUnits="userSpaceOnUse">
<stop stop-color="#F59E0B"/>
<stop offset="1" stop-color="#B94A05"/>
</linearGradient>
<clipPath id="clip0_26_194">
<rect width="256" height="256" fill="white"/>
</clipPath>
</defs>
</svg>
